<svg width="20" height="26" viewBox="0 0 20 26" fill="none" xmlns="http://www.w3.org/2000/svg">
<path d="M4.41128 1.22534L5.82343 0.835846C6.59702 0.621884 7.42204 0.696695 8.14453 1.04632C8.86702 1.39594 9.43763 1.99649 9.74988 2.7359L10.7783 5.17156C11.0467 5.80755 11.1094 6.51163 10.9573 7.18502C10.8053 7.8584 10.4463 8.4673 9.93066 8.92627L8.09669 10.5589C8.04308 10.6066 8.00831 10.6719 7.99866 10.743C7.93479 11.2189 8.23665 12.1553 8.95196 13.4643C9.47231 14.4154 9.94861 15.0864 10.3571 15.465C10.642 15.7301 10.8005 15.789 10.8695 15.7714L13.302 15.088C13.9663 14.9014 14.6723 14.9274 15.3211 15.1623C15.9699 15.3972 16.5289 15.8292 16.9198 16.3978L18.41 18.5675C18.8632 19.2274 19.0616 20.0292 18.9683 20.8242C18.875 21.6192 18.4964 22.3534 17.9028 22.8904L16.8148 23.8753C16.2374 24.3974 15.5346 24.7611 14.7749 24.9309C14.0151 25.1007 13.2244 25.0709 12.4796 24.8443C9.1913 23.8439 6.28858 20.9827 3.73644 16.3176C1.18083 11.6464 0.338584 7.65435 1.27582 4.34177C1.48678 3.59676 1.8861 2.91864 2.43528 2.37279C2.98447 1.82694 3.665 1.43176 4.41128 1.22534V1.22534ZM4.89184 2.96422C4.4442 3.08791 4.03595 3.32479 3.70642 3.65204C3.37688 3.97928 3.13717 4.38587 3.01035 4.83263C2.22233 7.61841 2.96921 11.1574 5.31826 15.4523C7.66385 19.7411 10.2374 22.2773 13.0051 23.1202C13.4518 23.2558 13.926 23.2734 14.3816 23.1714C14.8372 23.0694 15.2586 22.8512 15.6048 22.538L16.694 21.5531C16.9639 21.309 17.1361 20.9752 17.1784 20.6138C17.2208 20.2523 17.1306 19.8877 16.9245 19.5878L15.4354 17.4192C15.2577 17.1605 15.0034 16.9639 14.7083 16.857C14.4132 16.7502 14.092 16.7384 13.7898 16.8234L11.3513 17.5091C9.9356 17.8949 8.68541 16.7346 7.37013 14.3296C6.48403 12.7101 6.08234 11.4624 6.21147 10.5022C6.27948 10.0036 6.52205 9.5475 6.8977 9.21228L8.73166 7.57964C8.96615 7.37104 9.12943 7.09425 9.19859 6.78812C9.26775 6.48199 9.23932 6.16189 9.11728 5.87274L8.08887 3.43708C7.94694 3.10125 7.68774 2.82847 7.35958 2.6696C7.03142 2.51072 6.65668 2.47659 6.30521 2.57356L4.89184 2.96422V2.96422Z" fill="#424242"/>
</svg>
