<svg width="52" height="52" viewBox="0 0 52 52" fill="none" xmlns="http://www.w3.org/2000/svg">
<g clip-path="url(#clip0)">
<path d="M25.7703 52C25.4865 52 25.2092 51.8873 25.0033 51.6837C24.7477 51.428 24.635 51.0597 24.7065 50.7065L26.2383 43.0473C26.2817 42.835 26.3813 42.6422 26.5352 42.4927L43.3875 25.6403C44.6528 24.375 46.7177 24.375 47.983 25.6403L51.0467 28.704C52.3142 29.9715 52.3142 32.032 51.0467 33.2995L34.1943 50.1518C34.0448 50.3035 33.852 50.4053 33.6397 50.4487L25.9805 51.9805C25.9112 51.9935 25.8397 52 25.7703 52ZM28.301 43.7905L27.1527 49.5343L32.8965 48.386L49.517 31.7655C49.9395 31.343 49.9395 30.6562 49.517 30.2337L46.4533 27.17C46.0308 26.7475 45.344 26.7475 44.9215 27.17L28.301 43.7905ZM33.4295 49.3848H33.4512H33.4295Z" fill="#FF7A00"/>
<path d="M20.5833 45.5H5.41666C2.42883 45.5 -7.62939e-06 43.0712 -7.62939e-06 40.0833V11.9167C-7.62939e-06 8.92883 2.42883 6.49999 5.41666 6.49999H9.74999C10.348 6.49999 10.8333 6.98533 10.8333 7.58333C10.8333 8.18133 10.348 8.66666 9.74999 8.66666H5.41666C3.62483 8.66666 2.16666 10.1248 2.16666 11.9167V40.0833C2.16666 41.8752 3.62483 43.3333 5.41666 43.3333H20.5833C21.1813 43.3333 21.6667 43.8187 21.6667 44.4167C21.6667 45.0147 21.1813 45.5 20.5833 45.5Z" fill="#FF7A00"/>
<path d="M35.75 26C35.152 26 34.6667 25.5147 34.6667 24.9167V11.9167C34.6667 10.1248 33.2085 8.66666 31.4167 8.66666H27.0833C26.4853 8.66666 26 8.18133 26 7.58333C26 6.98533 26.4853 6.49999 27.0833 6.49999H31.4167C34.4045 6.49999 36.8333 8.92883 36.8333 11.9167V24.9167C36.8333 25.5147 36.348 26 35.75 26Z" fill="#FF7A00"/>
<path d="M24.9167 13H11.9167C10.1248 13 8.66666 11.5418 8.66666 9.74999V5.41666C8.66666 4.81866 9.152 4.33333 9.75 4.33333H13.1083C13.611 1.86333 15.8015 -7.62939e-06 18.4167 -7.62939e-06C21.0318 -7.62939e-06 23.2223 1.86333 23.725 4.33333H27.0833C27.6813 4.33333 28.1667 4.81866 28.1667 5.41666V9.74999C28.1667 11.5418 26.7085 13 24.9167 13ZM10.8333 6.49999V9.74999C10.8333 10.3458 11.3208 10.8333 11.9167 10.8333H24.9167C25.5125 10.8333 26 10.3458 26 9.74999V6.49999H22.75C22.152 6.49999 21.6667 6.01466 21.6667 5.41666C21.6667 3.62483 20.2085 2.16666 18.4167 2.16666C16.6248 2.16666 15.1667 3.62483 15.1667 5.41666C15.1667 6.01466 14.6813 6.49999 14.0833 6.49999H10.8333Z" fill="#FF7A00"/>
<path d="M29.25 19.5H7.58333C6.98533 19.5 6.49999 19.0147 6.49999 18.4167C6.49999 17.8187 6.98533 17.3333 7.58333 17.3333H29.25C29.848 17.3333 30.3333 17.8187 30.3333 18.4167C30.3333 19.0147 29.848 19.5 29.25 19.5Z" fill="#FF7A00"/>
<path d="M29.25 26H7.58333C6.98533 26 6.49999 25.5147 6.49999 24.9167C6.49999 24.3187 6.98533 23.8333 7.58333 23.8333H29.25C29.848 23.8333 30.3333 24.3187 30.3333 24.9167C30.3333 25.5147 29.848 26 29.25 26Z" fill="#FF7A00"/>
<path d="M29.25 32.5H7.58333C6.98533 32.5 6.49999 32.0147 6.49999 31.4167C6.49999 30.8187 6.98533 30.3334 7.58333 30.3334H29.25C29.848 30.3334 30.3333 30.8187 30.3333 31.4167C30.3333 32.0147 29.848 32.5 29.25 32.5Z" fill="#FF7A00"/>
</g>
<defs>
<clipPath id="clip0">
<rect width="52" height="52" fill="white"/>
</clipPath>
</defs>
</svg>
