<svg width="198" height="179" viewBox="0 0 198 179" fill="none" xmlns="http://www.w3.org/2000/svg">
<path d="M36.3007 151.958C37.1457 151.958 37.9868 151.666 38.6338 151.087C39.9208 149.924 39.9208 148.042 38.6338 146.883L12.0484 122.942C11.8241 122.767 6.59984 118.568 6.59984 110.332V65.7331C6.59984 62.4536 9.55983 59.7864 13.2001 59.7864C16.8399 59.7864 19.8003 62.4533 19.8003 65.7331V89.2695C19.8003 90.9138 21.2753 92.2427 23.1002 92.2427C24.9217 92.2427 26.4001 90.9138 26.4001 89.2695V65.7331C26.4001 59.1739 20.4767 53.8401 13.2001 53.8401C5.91998 53.8401 0 59.1742 0 65.7331V110.332C0 121.434 7.45141 127.229 7.56704 127.301L33.9676 151.087C34.6111 151.666 35.4557 151.958 36.3007 151.958Z" fill="#FF9900" fill-opacity="0.9"/>
<path d="M75.9012 160.877H23.1005C21.2755 160.877 19.8006 162.21 19.8006 163.851V175.744C19.8006 177.385 21.2755 178.717 23.1005 178.717C24.922 178.717 26.4004 177.385 26.4004 175.744V166.824H72.6013V175.744C72.6013 177.385 74.0762 178.717 75.9012 178.717C77.7227 178.717 79.2011 177.385 79.2011 175.744V163.851C79.2011 162.21 77.7227 160.877 75.9012 160.877Z" fill="#FF9900" fill-opacity="0.9"/>
<path d="M20.0018 107.299C20.1372 110.29 21.5824 113.171 24.0675 115.407L40.5679 130.274C41.8549 131.436 43.944 131.436 45.2341 130.274C46.5211 129.111 46.5211 127.229 45.2341 126.069L28.7306 111.2C27.4204 110.023 26.6647 108.551 26.5955 107.058C26.5294 105.59 27.13 104.24 28.3346 103.154C29.5358 102.069 31.044 101.531 32.6675 101.588C34.3242 101.65 35.9577 102.334 37.2679 103.514L60.5202 124.458C60.7445 124.637 66.0016 128.96 66.0016 137.092V151.958C66.0016 153.599 67.4766 154.931 69.3015 154.931C71.123 154.931 72.6014 153.599 72.6014 151.958V137.091C72.6014 126.15 65.1798 120.227 65.0344 120.123L41.9338 99.3099C39.4522 97.0709 36.2543 95.7688 32.9378 95.6469C29.453 95.5221 26.1728 96.6904 23.668 98.9503C21.1601 101.207 19.8599 104.174 20.0018 107.299Z" fill="#FF9900" fill-opacity="0.9"/>
<path d="M133.137 119.977C132.824 120.227 125.402 126.149 125.402 137.091V151.958C125.402 153.599 126.877 154.931 128.702 154.931C130.524 154.931 132.002 153.599 132.002 151.958V137.091C132.002 128.959 137.256 124.636 137.635 124.327L160.732 103.514C162.042 102.334 163.676 101.65 165.336 101.587C166.996 101.537 168.464 102.072 169.666 103.154C170.808 104.183 171.411 105.458 171.411 106.847C171.411 108.414 170.649 109.96 169.266 111.203L152.766 126.069C151.479 127.229 151.479 129.111 152.766 130.274C154.057 131.436 156.145 131.436 157.432 130.274L173.933 115.41C176.56 113.046 178.008 110.005 178.011 106.847C178.011 103.892 176.708 101.088 174.332 98.9503C171.827 96.6907 168.497 95.5252 165.065 95.6468C161.745 95.7688 158.551 97.0709 156.066 99.3099L133.137 119.977Z" fill="#FF9900" fill-opacity="0.9"/>
<path d="M158.399 33.0269C158.399 14.9908 142.117 0.320801 122.102 0.320801C108.04 0.320801 95.1211 7.73924 89.1806 19.2249C88.4118 20.7144 89.1245 22.4838 90.7777 23.1765C92.4279 23.8723 94.3913 23.2242 95.1636 21.7374C100.025 12.3389 110.598 6.26746 122.102 6.26746C138.477 6.26746 151.799 18.2705 151.799 33.0269C151.799 50.483 132.088 78.2208 99.0015 95.0375C65.9117 78.2205 46.2008 50.483 46.2008 33.0269C46.2008 18.2705 59.523 6.26746 75.9012 6.26746C80.0361 6.26746 84.036 7.01659 87.7915 8.49742C89.4613 9.15456 91.4085 8.47059 92.1375 6.96607C92.8699 5.46155 92.1077 3.71033 90.4378 3.05041C85.8443 1.23961 80.9503 0.320801 75.9012 0.320801C55.8832 0.320801 39.6005 14.9908 39.6005 33.0269C39.6005 52.2255 59.863 82.5915 97.4209 101.05C97.9124 101.29 98.4573 101.412 99.0015 101.412C99.546 101.412 100.087 101.29 100.582 101.05C138.137 82.5912 158.399 52.2282 158.399 33.0269Z" fill="#FF9900" fill-opacity="0.9"/>
<path d="M184.799 53.8396C177.523 53.8396 171.599 59.1737 171.599 65.7326V89.2691C171.599 90.9133 173.078 92.2423 174.899 92.2423C176.721 92.2423 178.199 90.9133 178.199 89.2691V65.7326C178.199 62.4532 181.159 59.7859 184.799 59.7859C188.44 59.7859 191.4 62.4528 191.4 65.7326V110.332C191.4 118.568 186.176 122.766 185.767 123.096L159.366 146.883C158.079 148.042 158.079 149.924 159.366 151.087C160.01 151.666 160.855 151.958 161.699 151.958C162.544 151.958 163.389 151.666 164.032 151.087L190.228 127.47C190.545 127.229 198 121.434 198 110.332V65.7329C198 59.1737 192.08 53.8396 184.799 53.8396Z" fill="#FF9900" fill-opacity="0.9"/>
<path d="M174.899 160.877H122.102C120.277 160.877 118.802 162.21 118.802 163.851V175.744C118.802 177.385 120.277 178.717 122.102 178.717C123.924 178.717 125.402 177.385 125.402 175.744V166.824H171.599V175.744C171.599 177.385 173.078 178.717 174.899 178.717C176.721 178.717 178.199 177.385 178.199 175.744V163.851C178.2 162.21 176.721 160.877 174.899 160.877Z" fill="#FF9900" fill-opacity="0.9"/>
<path d="M127.623 19.011C132.26 20.4946 136.012 23.8783 137.662 28.0675C138.144 29.2866 139.414 30.0476 140.77 30.0476C141.136 30.0476 141.509 29.9912 141.876 29.8751C143.592 29.325 144.489 27.6243 143.882 26.0783C141.543 20.1316 136.421 15.5141 129.831 13.4061C128.115 12.8619 126.227 13.6678 125.616 15.2138C125.009 16.7629 125.904 18.4608 127.623 19.011Z" fill="#FF9900" fill-opacity="0.9"/>
</svg>
