<svg width="258" height="255" viewBox="0 0 258 255" fill="none" xmlns="http://www.w3.org/2000/svg">
<path d="M176.93 143.775L141.902 122.503C141.475 122.243 140.984 122.067 140.489 121.991L129.523 120.078C127.494 119.723 125.501 121.103 125.144 123.108C124.786 125.113 126.18 127.083 128.209 127.436L138.558 129.241L172.973 150.142C174.653 151.162 176.957 150.667 178.072 149.063C179.269 147.342 178.729 144.868 176.93 143.775Z" fill="#FFE0B0"/>
<path d="M256.747 144.973C255.321 143.465 252.929 143.386 251.404 144.794L236.081 158.949L165.867 90.4762L256.569 6.46164C258.092 5.05067 258.17 2.68644 256.743 1.18135C255.316 -0.323752 252.923 -0.400452 251.4 1.01002L157.83 87.6811C156.287 89.11 156.255 91.5983 157.76 93.0665L163.971 99.1223L161.988 100.852L120.476 97.3193C119.835 97.2655 119.17 97.3746 118.585 97.6416L85.6937 112.448C85.598 112.423 85.5023 112.399 85.403 112.382L66.4833 109.082L68.0132 105.216C68.7695 103.305 67.8247 101.148 65.8968 100.387L5.41996 76.4776C3.48093 75.7101 1.28188 76.6429 0.506876 78.5589C-0.268636 80.4744 0.674173 82.6489 2.6127 83.4149L59.606 105.948L26.0197 190.779L5.27786 183.518C3.3096 182.83 1.14986 183.848 0.452958 185.793C-0.243944 187.738 0.786544 189.873 2.7543 190.562L26.9448 199.029C28.8435 199.694 30.9932 198.722 31.7264 196.869L37.3394 182.692L52.0469 190.838L50.4248 193.436C45.8287 200.799 48.1492 210.485 55.5989 215.028C59.5385 217.431 64.4289 218.001 68.831 216.592C69.537 221.126 72.2329 225.172 76.186 227.583C80.1256 229.986 85.0155 230.555 89.4181 229.147C90.1246 233.681 92.8195 237.727 96.7726 240.138C100.724 242.548 105.589 243.115 110.006 241.706C110.713 246.238 113.408 250.282 117.36 252.693C123.104 256.195 130.707 255.672 135.884 251.383C137.189 250.301 138.313 249.011 139.207 247.579L141.785 243.449L143.908 244.738C149.66 248.231 157.261 247.693 162.43 243.394C163.733 242.31 164.854 241.018 165.745 239.584C167.517 236.734 168.25 233.539 168.057 230.429C169.257 230.715 170.486 230.868 171.725 230.868C177.215 230.868 182.407 228.007 185.28 223.386C187.011 220.602 187.801 217.428 187.601 214.233C188.798 214.517 190.024 214.669 191.26 214.669C196.749 214.669 201.942 211.808 204.815 207.187C206.547 204.401 207.337 201.225 207.135 198.027C208.345 198.312 209.574 198.461 210.798 198.461C216.136 198.461 221.356 195.805 224.35 190.989C228.932 183.617 226.593 173.936 219.135 169.407L216.545 167.834L225.231 158.863L233.357 166.787C234.782 168.176 237.131 168.207 238.592 166.857L256.567 150.254C258.092 148.845 258.172 146.481 256.747 144.973ZM71.0119 205.991C68.6038 209.847 63.4705 211.048 59.5682 208.67C55.666 206.29 54.4505 201.216 56.8577 197.36L78.0288 163.447C80.3916 159.662 85.4619 158.424 89.3335 160.685C93.3395 163.026 94.4451 168.454 92.0399 172.307L71.0119 205.991ZM91.598 218.545C89.1908 222.402 84.0571 223.604 80.1553 221.224C76.3004 218.873 75.0623 213.73 77.4448 209.914L94.3811 182.784C96.7439 179 101.814 177.761 105.686 180.022C109.692 182.363 110.797 187.791 108.392 191.644L91.598 218.545ZM112.187 231.1C111.02 232.968 109.186 234.276 107.026 234.782C104.863 235.289 102.633 234.932 100.742 233.779C96.888 231.428 95.6499 226.285 98.0324 222.469L110.735 202.121C113.098 198.336 118.168 197.099 122.039 199.359C126.046 201.7 127.151 207.128 124.746 210.982L112.187 231.1ZM141.099 230.32L132.773 243.655C130.394 247.466 125.191 248.688 121.329 246.334C117.475 243.983 116.238 238.839 118.619 235.024L127.088 221.459C129.45 217.675 134.521 216.435 138.392 218.697C142.398 221.038 143.504 226.466 141.099 230.32ZM209.954 163.831L191.218 152.453C189.481 151.397 187.087 151.963 186.019 153.68C184.952 155.397 185.524 157.763 187.261 158.818L215.176 175.771C219.082 178.144 220.308 183.215 217.908 187.076C215.507 190.937 210.376 192.148 206.469 189.776L176.53 171.594C174.752 170.513 172.424 171.063 171.332 172.821C170.239 174.578 170.795 176.879 172.573 177.959L195.642 191.969C199.501 194.313 200.749 199.454 198.374 203.274C196.002 207.089 190.801 208.321 186.936 205.974L166.029 193.278C164.251 192.197 161.923 192.747 160.831 194.505C159.738 196.262 160.294 198.563 162.072 199.643L176.108 208.167C179.967 210.511 181.215 215.652 178.84 219.472C176.468 223.286 171.267 224.52 167.402 222.172C167.402 222.172 155.058 214.683 154.943 214.628C153.217 213.805 151.106 214.391 150.082 216.038C148.99 217.796 149.546 220.097 151.324 221.177L156.574 224.365C160.48 226.738 161.705 231.809 159.305 235.67C156.934 239.485 151.732 240.717 147.867 238.37L145.757 237.088L147.534 234.241C149.806 230.601 150.511 226.119 149.468 221.943C148.439 217.822 145.872 214.385 142.242 212.264C139.409 210.609 136.24 209.939 133.154 210.144C133.733 207.684 133.736 205.091 133.115 202.605C132.086 198.485 129.519 195.047 125.889 192.926C123.056 191.271 119.887 190.601 116.801 190.806C118.359 184.188 115.49 177.068 109.536 173.588C106.703 171.934 103.534 171.263 100.448 171.469C102.007 164.851 99.1375 157.73 93.1833 154.251C85.7915 149.932 76.1089 152.297 71.599 159.521L56.0232 184.471L40.121 175.667L63.6725 116.179L76.4959 118.416C72.8487 122.893 71.8232 129.197 74.3931 134.775C77.0527 140.547 82.8305 143.962 88.8643 143.961C91.0619 143.961 93.2937 143.508 95.4206 142.551L117.556 132.586C119.431 131.742 120.283 129.491 119.429 127.638C118.576 125.786 116.297 124.942 114.423 125.787L92.2868 135.751C88.115 137.63 83.1732 135.802 81.2725 131.678C79.3722 127.554 81.2206 122.67 85.3934 120.792L120.815 104.847L162.951 108.433C163.059 108.443 163.167 108.447 163.275 108.447C164.192 108.447 165.083 108.117 165.777 107.512L169.363 104.382L219.848 153.614L209.954 163.831Z" fill="#FFE0B0"/>
</svg>
