<svg width="87" height="72" viewBox="0 0 87 72" fill="none" xmlns="http://www.w3.org/2000/svg">
<g clip-path="url(#clip0)" filter="url(#filter0_d)">
<path d="M11.7148 37.5694C10.8632 37.5694 10.1719 38.1557 10.1719 38.878C10.1719 39.6003 10.8632 40.1866 11.7148 40.1866C12.5665 40.1866 13.2578 39.6003 13.2578 38.878C13.2578 38.1557 12.5665 37.5694 11.7148 37.5694Z" fill="#5B5B5B" fill-opacity="0.9"/>
<path d="M74.9176 42.1071L60.3715 46.3482C60.436 46.0446 60.4722 45.7348 60.4722 45.4205C60.4722 42.5344 57.7038 40.1861 54.3003 40.1861H44.3083C44.0431 40.1861 43.7815 40.1283 43.5507 40.0179L35.3989 36.1294C33.7872 35.3591 31.9555 34.9517 30.1021 34.9517H19.1639C18.5274 33.4289 16.8121 32.335 14.8008 32.335H5.54297C4.69072 32.335 4 32.9208 4 33.6436V57.1978C4 57.9206 4.69072 58.5064 5.54297 58.5064H14.8008C16.7663 58.5064 18.4515 57.459 19.1205 55.9879C20.8672 56.1719 22.8881 56.61 24.1581 57.2561L32.2273 61.3623C35.2844 62.9183 38.7844 63.7408 42.3501 63.7408C45.1756 63.7408 47.9132 63.2378 50.4874 62.2462L79.2862 51.4916C82.4758 50.3942 84.0507 47.1487 82.2275 44.2882C80.8864 42.1832 77.7456 41.2468 74.9176 42.1071ZM16.3438 54.5868C16.3402 55.3055 15.6488 55.8892 14.8008 55.8892H7.08594V34.9522H14.8008C15.6512 34.9522 16.3438 35.539 16.3438 36.2608V54.5868ZM78.1139 49.0713C78.0976 49.0764 78.0813 49.0825 78.065 49.0881C78.065 49.0881 49.2235 59.8585 49.2181 59.8605C47.0453 60.6988 44.7345 61.1236 42.3501 61.1236C39.3437 61.1236 36.3928 60.4305 33.8155 59.1183L25.7457 55.0121C24.0182 54.1334 21.5447 53.5977 19.4297 53.383V37.5694H30.1021C31.4257 37.5694 32.7336 37.8598 33.8854 38.4103L42.0373 42.2988C42.728 42.629 43.5139 42.8038 44.3083 42.8038H54.3003C56.0018 42.8038 57.3862 43.9774 57.3862 45.421C57.3862 46.8589 56.0012 48.0382 54.3003 48.0382H38.615C37.7627 48.0382 37.072 48.624 37.072 49.3468C37.072 50.0691 37.7627 50.6549 38.615 50.6549H54.3003C55.3122 50.6549 56.3085 50.4417 57.1927 50.042C57.1927 50.042 75.9465 44.5745 75.9537 44.5724C77.3364 44.1492 78.8998 44.5704 79.5128 45.5324C80.4319 46.9744 79.6719 48.5422 78.1139 49.0713Z" fill="#5B5B5B" fill-opacity="0.9"/>
<path d="M48.9385 35.012C49.229 35.2252 49.5888 35.3315 49.9493 35.3315C50.3097 35.3315 50.6701 35.2252 50.96 35.012C63.5491 25.7588 71.3363 21.076 71.3363 13.799C71.3363 8.04218 66.5308 3.27142 59.7797 3.27142C55.346 3.27142 51.9509 5.43879 49.7642 8.69136C47.5824 5.44594 44.1908 3.27142 39.7506 3.27142C34.5822 3.27142 30.2613 6.112 28.7424 10.5076C28.5026 11.2012 28.9715 11.9281 29.7894 12.1315C30.6073 12.335 31.4643 11.9373 31.7036 11.2436C32.8277 7.99055 35.986 5.88862 39.7506 5.88862C44.1523 5.88862 47.24 9.20356 48.2773 12.29C48.4623 12.8569 49.0711 13.2495 49.7642 13.2495C50.458 13.2495 51.0661 12.8569 51.2511 12.29C51.2722 12.2261 53.4155 5.88862 59.7797 5.88862C64.6087 5.88862 68.2504 9.28892 68.2504 13.799C68.2504 19.6202 61.5408 23.8169 49.9481 32.2941C42.8847 27.1497 37.274 23.5286 34.085 19.9862C33.5678 19.4116 32.5999 19.3012 31.9224 19.7398C31.245 20.1784 31.1154 20.9993 31.6319 21.5744C35.2265 25.5671 41.2948 29.3927 48.9385 35.012Z" fill="#5B5B5B" fill-opacity="0.9"/>
<path d="M30.0763 14.7999C29.2247 14.7999 28.5333 15.3862 28.5333 16.1085C28.5333 16.8307 29.2247 17.4171 30.0763 17.4171C30.9279 17.4171 31.6193 16.8307 31.6193 16.1085C31.6193 15.3862 30.9279 14.7999 30.0763 14.7999Z" fill="#5B5B5B" fill-opacity="0.9"/>
</g>
<defs>
<filter id="filter0_d" x="0" y="0" width="87" height="75" filterUnits="userSpaceOnUse" color-interpolation-filters="sRGB">
<feFlood flood-opacity="0" result="BackgroundImageFix"/>
<feColorMatrix in="SourceAlpha" type="matrix" values="0 0 0 0 0 0 0 0 0 0 0 0 0 0 0 0 0 0 127 0"/>
<feOffset dy="4"/>
<feGaussianBlur stdDeviation="2"/>
<feColorMatrix type="matrix" values="0 0 0 0 0 0 0 0 0 0 0 0 0 0 0 0 0 0 0.25 0"/>
<feBlend mode="normal" in2="BackgroundImageFix" result="effect1_dropShadow"/>
<feBlend mode="normal" in="SourceGraphic" in2="effect1_dropShadow" result="shape"/>
</filter>
<clipPath id="clip0">
<rect width="79" height="67" fill="white" transform="translate(4)"/>
</clipPath>
</defs>
</svg>
