<svg width="26" height="26" viewBox="0 0 26 26" fill="none" xmlns="http://www.w3.org/2000/svg">
<path fill-rule="evenodd" clip-rule="evenodd" d="M7.62957 0.0778889C9.01387 0.0141616 9.45524 0 12.9815 0C16.5077 0 16.9491 0.0153417 18.3322 0.0778889C19.7153 0.140436 20.6594 0.361121 21.4855 0.680938C22.3506 1.00784 23.1354 1.51883 23.7844 2.17971C24.4453 2.8276 24.9551 3.61121 25.2809 4.47743C25.6019 5.30353 25.8214 6.24763 25.8851 7.62839C25.9488 9.01505 25.963 9.45642 25.963 12.9815C25.963 16.5077 25.9476 16.9491 25.8851 18.3334C25.8225 19.7142 25.6019 20.6583 25.2809 21.4844C24.9551 22.3507 24.4445 23.1356 23.7844 23.7844C23.1354 24.4453 22.3506 24.9551 21.4855 25.2809C20.6594 25.6019 19.7153 25.8214 18.3346 25.8851C16.9491 25.9488 16.5077 25.963 12.9815 25.963C9.45524 25.963 9.01387 25.9476 7.62957 25.8851C6.24882 25.8225 5.30471 25.6019 4.47861 25.2809C3.6123 24.9551 2.82739 24.4444 2.17853 23.7844C1.5181 23.1362 1.00703 22.3516 0.680938 21.4855C0.361121 20.6594 0.141616 19.7153 0.0778889 18.3346C0.0141616 16.9479 0 16.5065 0 12.9815C0 9.45524 0.0153417 9.01387 0.0778889 7.63075C0.140436 6.24763 0.361121 5.30353 0.680938 4.47743C1.00751 3.61131 1.51897 2.82679 2.17971 2.17853C2.82765 1.51825 3.61177 1.00718 4.47743 0.680938C5.30353 0.361121 6.24763 0.141616 7.62839 0.0778889H7.62957ZM18.2272 2.41456C16.8582 2.35201 16.4475 2.33903 12.9815 2.33903C9.51543 2.33903 9.10474 2.35201 7.73579 2.41456C6.4695 2.47238 5.78266 2.68363 5.32477 2.86183C4.71936 3.09785 4.28625 3.37755 3.8319 3.8319C3.4012 4.25091 3.06974 4.761 2.86183 5.32477C2.68363 5.78266 2.47238 6.4695 2.41456 7.73579C2.35201 9.10474 2.33903 9.51543 2.33903 12.9815C2.33903 16.4475 2.35201 16.8582 2.41456 18.2272C2.47238 19.4935 2.68363 20.1803 2.86183 20.6382C3.06953 21.2011 3.40115 21.7121 3.8319 22.1311C4.25085 22.5618 4.76184 22.8934 5.32477 23.1011C5.78266 23.2793 6.4695 23.4906 7.73579 23.5484C9.10474 23.611 9.51425 23.6239 12.9815 23.6239C16.4487 23.6239 16.8582 23.611 18.2272 23.5484C19.4935 23.4906 20.1803 23.2793 20.6382 23.1011C21.2436 22.8651 21.6767 22.5854 22.1311 22.1311C22.5618 21.7121 22.8934 21.2011 23.1011 20.6382C23.2793 20.1803 23.4906 19.4935 23.5484 18.2272C23.611 16.8582 23.6239 16.4475 23.6239 12.9815C23.6239 9.51543 23.611 9.10474 23.5484 7.73579C23.4906 6.4695 23.2793 5.78266 23.1011 5.32477C22.8651 4.71936 22.5854 4.28625 22.1311 3.8319C21.712 3.40123 21.202 3.06978 20.6382 2.86183C20.1803 2.68363 19.4935 2.47238 18.2272 2.41456ZM11.3234 16.9833C12.2494 17.3688 13.2805 17.4208 14.2406 17.1305C15.2007 16.8402 16.0302 16.2256 16.5875 15.3916C17.1448 14.5576 17.3953 13.5561 17.2961 12.5579C17.197 11.5598 16.7544 10.6271 16.0439 9.91903C15.591 9.46642 15.0434 9.11986 14.4405 8.90429C13.8376 8.68872 13.1944 8.60951 12.5572 8.67236C11.92 8.73521 11.3047 8.93855 10.7555 9.26775C10.2063 9.59696 9.73699 10.0438 9.38125 10.5762C9.02551 11.1086 8.79223 11.7132 8.6982 12.3465C8.60418 12.9799 8.65175 13.6262 8.83749 14.2389C9.02323 14.8517 9.34252 15.4156 9.77237 15.8902C10.2022 16.3647 10.7319 16.7381 11.3234 16.9833ZM8.2633 8.2633C8.88291 7.6437 9.61848 7.15221 10.428 6.81689C11.2376 6.48156 12.1052 6.30897 12.9815 6.30897C13.8577 6.30897 14.7254 6.48156 15.5349 6.81689C16.3445 7.15221 17.0801 7.6437 17.6997 8.2633C18.3193 8.88291 18.8108 9.61848 19.1461 10.428C19.4814 11.2376 19.654 12.1052 19.654 12.9815C19.654 13.8577 19.4814 14.7254 19.1461 15.5349C18.8108 16.3445 18.3193 17.0801 17.6997 17.6997C16.4483 18.951 14.7511 19.654 12.9815 19.654C11.2118 19.654 9.51464 18.951 8.2633 17.6997C7.01197 16.4483 6.30897 14.7511 6.30897 12.9815C6.30897 11.2118 7.01197 9.51464 8.2633 8.2633ZM21.1339 7.30268C21.2874 7.15784 21.4103 6.98366 21.4953 6.79047C21.5804 6.59727 21.6257 6.38898 21.6288 6.17792C21.6319 5.96687 21.5926 5.75734 21.5133 5.56175C21.4339 5.36616 21.3161 5.18848 21.1669 5.03922C21.0176 4.88997 20.8399 4.77218 20.6443 4.69283C20.4487 4.61348 20.2392 4.57417 20.0282 4.57725C19.8171 4.58033 19.6088 4.62572 19.4156 4.71074C19.2224 4.79576 19.0482 4.91868 18.9034 5.07222C18.6217 5.37083 18.4675 5.76746 18.4735 6.17792C18.4795 6.58839 18.6452 6.98036 18.9355 7.27063C19.2257 7.5609 19.6177 7.72661 20.0282 7.7326C20.4386 7.73858 20.8353 7.58436 21.1339 7.30268Z" fill="#424242"/>
</svg>
