<svg width="61" height="59" viewBox="0 0 61 59" fill="none" xmlns="http://www.w3.org/2000/svg">
<g clip-path="url(#clip0)">
<path d="M6.51736 21.9121C6.51736 10.7829 15.8786 1.72854 27.3851 1.72854C32.3305 1.72854 37.1272 3.43288 40.8913 6.52754C41.2675 6.83672 41.8314 6.79235 42.1509 6.42878C42.4706 6.0651 42.4248 5.51957 42.0488 5.21051C37.9617 1.85046 32.754 0 27.3851 0C14.8932 0 4.73022 9.82974 4.73022 21.9121C4.73022 25.8426 5.91462 30.3024 8.25064 35.1677C10.0965 39.0122 12.6639 43.1235 15.8816 47.3874C16.0565 47.6193 16.3284 47.7423 16.6039 47.7423C16.7867 47.7423 16.9711 47.6882 17.1301 47.5761C17.5287 47.2947 17.6159 46.754 17.325 46.3685C12.3946 39.8347 6.51736 30.2878 6.51736 21.9121Z" fill="#6C6B6A"/>
<path d="M27.5572 10.8773C22.669 10.8773 18.4515 14.0837 17.3009 18.6744C17.1846 19.1383 17.4793 19.6056 17.9588 19.718C18.4382 19.8305 18.9215 19.5455 19.0378 19.0817C19.9934 15.2689 23.4967 12.606 27.5572 12.606C32.3918 12.606 36.3252 16.4104 36.3252 21.0866C36.3252 25.7627 32.3918 29.5671 27.5572 29.5671C23.4929 29.5671 19.8962 26.7865 19.0054 22.9552C18.8972 22.4897 18.4191 22.1972 17.9375 22.3017C17.456 22.4065 17.1534 22.8689 17.2617 23.3346C17.7793 25.5599 19.0784 27.5802 20.9197 29.0234C22.7892 30.4887 25.1466 31.2957 27.5572 31.2957C33.3774 31.2957 38.1123 26.7158 38.1123 21.0866C38.1123 15.4573 33.3774 10.8773 27.5572 10.8773Z" fill="#6C6B6A"/>
<path d="M45.1111 33.9933C45.0474 34.0202 44.9853 34.0506 44.9246 34.0839L42.3693 31.6125C42.3693 30.5902 41.9582 29.6032 41.2111 28.8804L40.448 28.1424C41.6722 26.0582 42.3725 23.65 42.3725 21.0865C42.3725 13.1851 35.7263 6.75674 27.5569 6.75674C19.3876 6.75674 12.7415 13.1851 12.7415 21.0866C12.7415 28.988 19.3877 35.4163 27.557 35.4163C30.2074 35.4163 32.697 34.739 34.8518 33.5551L35.6151 34.2925C36.3622 35.0161 37.3833 35.4139 38.4403 35.4139L40.9957 37.8854C40.5646 38.6235 40.6716 39.5784 41.3208 40.2063L41.5572 40.4349C37.0358 47.6216 31.4368 53.766 28.4703 56.8176C28.1855 57.1104 27.8002 57.2716 27.3851 57.2716C26.9701 57.2716 26.5848 57.1104 26.3002 56.8176C24.8101 55.2848 22.5035 52.8116 19.9773 49.7344C19.6703 49.3605 19.1083 49.298 18.7218 49.5949C18.3354 49.8918 18.2708 50.4353 18.5776 50.8092C21.1423 53.9333 23.4849 56.4449 24.9983 58.0016C25.6153 58.6362 26.4851 59.0002 27.3852 59.0002H27.3854C28.2854 59.0002 29.1554 58.6363 29.7724 58.0017C32.7376 54.9515 38.2929 48.8588 42.8576 41.6927L49.0242 47.6571C49.8518 48.4577 50.9389 48.8579 52.0261 48.8579C53.1133 48.8579 54.2005 48.4577 55.028 47.6571H55.0281C56.6834 46.056 56.6834 43.451 55.0281 41.8499L47.3249 34.3993C47.2235 34.3014 47.1127 34.2161 46.9952 34.1425C49.0141 29.6768 50.04 25.5642 50.04 21.9124C50.04 16.9657 48.3766 12.2972 45.2295 8.4113C44.9251 8.03552 44.3634 7.9696 43.9751 8.26392C43.5866 8.55823 43.5183 9.10157 43.8227 9.47724C46.721 13.056 48.253 17.356 48.253 21.9124C48.2529 25.4668 47.1926 29.5395 45.1111 33.9933ZM14.5287 21.0865C14.5287 14.1381 20.3732 8.48517 27.557 8.48517C34.741 8.48517 40.5855 14.1381 40.5855 21.0863C40.5855 28.0347 34.741 33.6876 27.5572 33.6876C20.3731 33.6876 14.5287 28.0348 14.5287 21.0865ZM36.3815 32.5898C37.5478 31.7506 38.5826 30.7498 39.4502 29.6218L39.9474 30.1026C40.357 30.4989 40.5827 31.0259 40.5827 31.5864C40.5827 32.147 40.357 32.674 39.947 33.0705C39.5373 33.4672 38.9924 33.6857 38.413 33.6857C37.8338 33.6857 37.2889 33.4672 36.8786 33.0698L36.3815 32.5898ZM41.2111 34.2926C41.4508 34.0608 41.6555 33.804 41.8236 33.5289L43.6088 35.2556L42.2066 36.6119L40.4218 34.8855C40.7061 34.7228 40.9714 34.5247 41.2111 34.2926ZM53.7645 46.4346C52.8059 47.3616 51.2462 47.3616 50.2878 46.4346L42.5847 38.984C42.5012 38.9031 42.5012 38.7716 42.5847 38.6908L45.7583 35.6213C45.8101 35.5712 45.8693 35.5607 45.9097 35.5607C45.9501 35.5607 46.0094 35.5713 46.0611 35.6214L53.7643 43.072C54.7229 43.9989 54.7229 45.5075 53.7645 46.4346Z" fill="#6C6B6A"/>
</g>
<defs>
<clipPath id="clip0">
<rect width="61" height="59" fill="white"/>
</clipPath>
</defs>
</svg>
