<svg width="36" height="43" viewBox="0 0 36 43" fill="none" xmlns="http://www.w3.org/2000/svg">
<path d="M18.0392 10.0657C16.7536 10.0657 15.4969 10.4092 14.4279 11.0527C13.359 11.6962 12.5259 12.6108 12.0339 13.6809C11.542 14.751 11.4132 15.9286 11.6641 17.0646C11.9149 18.2006 12.5339 19.2441 13.443 20.0631C14.352 20.8821 15.5102 21.4399 16.7711 21.6659C18.0319 21.8918 19.3389 21.7758 20.5266 21.3326C21.7143 20.8893 22.7295 20.1387 23.4437 19.1757C24.1579 18.2126 24.5392 17.0803 24.5392 15.9221C24.5372 14.3694 23.8517 12.8809 22.6332 11.783C21.4146 10.6851 19.7625 10.0675 18.0392 10.0657ZM18.0392 18.8502C17.3964 18.8502 16.768 18.6785 16.2336 18.3567C15.6991 18.035 15.2825 17.5777 15.0365 17.0426C14.7906 16.5076 14.7262 15.9188 14.8516 15.3508C14.977 14.7828 15.2865 14.261 15.7411 13.8515C16.1956 13.442 16.7747 13.1631 17.4051 13.0502C18.0355 12.9372 18.689 12.9952 19.2829 13.2168C19.8767 13.4384 20.3843 13.8137 20.7414 14.2953C21.0985 14.7768 21.2892 15.3429 21.2892 15.9221C21.2882 16.6984 20.9454 17.4426 20.3362 17.9916C19.7269 18.5405 18.9008 18.8493 18.0392 18.8502Z" fill="#FF7A00"/>
<path d="M30.5295 4.65993C27.4413 1.8782 23.3188 0.225742 18.9579 0.0214778C14.5969 -0.182787 10.3065 1.07562 6.91474 3.55383C3.523 6.03204 1.27035 9.55437 0.591554 13.441C-0.0872399 17.3276 0.855942 21.303 3.23907 24.6L15.5187 41.5846C15.7919 41.9625 16.1656 42.273 16.6057 42.488C17.0459 42.7029 17.5386 42.8155 18.0392 42.8155C18.5398 42.8155 19.0326 42.7029 19.4727 42.488C19.9128 42.273 20.2865 41.9625 20.5597 41.5846L32.8398 24.6C35.051 21.5416 36.0282 17.8913 35.6076 14.261C35.187 10.6307 33.3941 7.24092 30.5295 4.65993ZM30.1167 23.0016L18.0393 39.706L5.96175 23.0016C2.26488 17.8884 3.05778 11.0456 7.84706 6.73042C9.1855 5.52448 10.7745 4.56787 12.5233 3.91522C14.272 3.26257 16.1464 2.92665 18.0393 2.92665C19.9321 2.92665 21.8065 3.26257 23.5553 3.91522C25.304 4.56787 26.893 5.52448 28.2315 6.73042C33.0207 11.0456 33.8135 17.8884 30.1167 23.0016Z" fill="#FF7A00"/>
</svg>
