<svg width="30" height="28" viewBox="0 0 28 23" fill="none" xmlns="http://www.w3.org/2000/svg">
<path d="M23.1815 2.74394C23.3121 2.71829 23.4423 2.69051 23.5718 2.66062L24.193 4.47875C24.0997 4.55128 24.005 4.62224 23.9091 4.69161L23.4719 5.00782L23.4961 5.54688C23.5063 5.77254 23.5118 5.99895 23.5118 6.22156C23.5118 13.1505 18.2442 21.0656 8.66661 21.0656H8.66549C7.11316 21.0673 5.57856 20.8241 4.11625 20.3518C5.88379 19.9593 7.55295 19.1749 8.9948 18.043L11.2048 16.3081L8.39565 16.2566C7.44216 16.2391 6.51801 15.9239 5.75256 15.3551C5.40803 15.0991 5.10342 14.7975 4.84598 14.4604C5.21831 14.4252 5.58809 14.3584 5.95126 14.2601L5.88809 12.3146C4.85388 12.1057 3.92383 11.5453 3.25574 10.7287C2.90515 10.3001 2.63804 9.81483 2.46334 9.29789C2.87246 9.39126 3.29098 9.44544 3.71328 9.45887L7.2089 9.5701L4.30045 7.62777C3.67484 7.20998 3.16203 6.64423 2.80751 5.98071C2.453 5.31719 2.26774 4.57643 2.26818 3.82414V3.82356C2.26818 3.50629 2.30061 3.19652 2.36233 2.89722C3.62488 4.16851 5.08513 5.23245 6.68958 6.04587C8.79208 7.11179 11.0952 7.72371 13.4495 7.84192L14.7768 7.90856L14.4732 6.61474C14.2433 5.63465 14.3433 4.60606 14.7578 3.68866C15.1723 2.77125 15.8781 2.01636 16.7656 1.54119C17.6532 1.06602 18.6727 0.897152 19.666 1.0608C20.6593 1.22446 21.5708 1.71147 22.259 2.44624L22.6378 2.85067L23.1815 2.74394Z" stroke="#424242" stroke-width="2"/>
</svg>
